Coordinates
version=1
nRows=16
nColumns=40
inDegrees=yes

Units are S.I. units (second, meters, Newtons, ...)
Angles are in degrees.

endheader
time	pelvis_tilt	pelvis_list	pelvis_rotation	pelvis_tx	pelvis_ty	pelvis_tz	hip_flexion_r	hip_adduction_r	hip_rotation_r	knee_angle_r	knee_angle_r_beta	ankle_angle_r	subtalar_angle_r	mtp_angle_r	hip_flexion_l	hip_adduction_l	hip_rotation_l	knee_angle_l	knee_angle_l_beta	ankle_angle_l	subtalar_angle_l	mtp_angle_l	lumbar_extension	lumbar_bending	lumbar_rotation	arm_flex_r	arm_add_r	arm_rot_r	elbow_flex_r	pro_sup_r	wrist_flex_r	wrist_dev_r	arm_flex_l	arm_add_l	arm_rot_l	elbow_flex_l	pro_sup_l	wrist_flex_l	wrist_dev_l
      1.42000000	     -0.55796847	      2.12381780	      0.95519843	      0.11181570	      0.95740391	     -1.03008606	     -1.72186966	     -1.69272745	    -16.37834339	    -15.82113677	     -0.27613093	     10.56728547	     -0.07480509	     -8.80249290	     23.66811264	      4.28766941	     16.09294348	    -18.77498211	     -0.32768525	     -2.63949954	      5.66267961	     10.41026317	     -6.65942060	     -3.84611479	      2.55612764	     11.31018808	    -12.78190188	     -5.81375765	     25.49733187	     89.95437384	      0.00000000	      0.00000000	     -8.89766538	     11.06899139	     14.27892418	     18.98272979	     89.95437384	      0.00000000	      0.00000000
      1.43000000	     -0.62915596	      1.97295472	      0.76353420	      0.12067639	      0.95580173	     -1.03023664	     -2.17831838	     -1.53333612	    -16.19909011	    -15.92430136	     -0.27793149	     11.04127060	     -0.07225353	     -9.00822964	     24.09204735	      4.38981867	     15.60235878	    -17.32409192	     -0.30236244	     -2.82122184	      4.57793170	     10.34126414	     -6.60379214	     -3.78122852	      2.71969623	     11.88631880	    -12.80487797	     -5.66227700	     25.91733888	     89.95437384	      0.00000000	      0.00000000	     -9.47563929	     11.18387507	     14.13773814	     18.15688563	     89.95437384	      0.00000000	      0.00000000
      1.44000000	     -0.26405327	      2.22849860	      0.40842590	      0.13004238	      0.95499955	     -1.03056941	     -3.11090595	     -1.91133778	    -16.16354866	    -16.13408571	     -0.28159292	     11.42356658	      0.01390772	     -9.57654822	     23.78972184	      4.19755826	     15.98545407	    -15.70355672	     -0.27407877	     -3.40524087	      2.60792572	     10.10409883	     -7.01829668	     -4.15031341	      2.94374905	     12.41021983	    -12.87125594	     -5.17751412	     26.49724982	     89.95437384	      0.00000000	      0.00000000	    -10.02975166	     11.34606584	     13.95396494	     17.42155308	     89.95437384	      0.00000000	      0.00000000
      1.45000000	     -0.33728896	      2.15197566	      0.08272708	      0.13904114	      0.95334770	     -1.03074255	     -3.53057348	     -1.89003682	    -15.95552443	    -16.30548651	     -0.28458443	     11.78627584	      0.11087555	     -9.79094833	     24.11513731	      4.27601169	     15.63428689	    -14.48028357	     -0.25272862	     -3.34720658	      1.62950206	      9.98760543	     -6.96074498	     -4.17261948	      3.23932198	     12.92084956	    -12.88040468	     -5.08356454	     26.88644699	     89.95437384	      0.00000000	      0.00000000	    -10.56013966	     11.47075604	     13.76381796	     16.70180383	     89.95437384	      0.00000000	      0.00000000
      1.46000000	      0.01607420	      2.42966483	     -0.38972489	      0.14884409	      0.95241324	     -1.03095849	     -4.45325745	     -2.40045432	    -16.19076285	    -16.53299667	     -0.28855523	     12.13843603	      1.01607908	    -10.92608574	     23.79533593	      4.15077343	     16.49449992	    -13.24249034	     -0.23112506	     -3.72002417	     -0.27408604	      9.53739209	     -7.29221261	     -4.59956946	      3.59757469	     13.33342087	    -12.83981496	     -4.92800121	     27.39438301	     89.95437384	      0.00000000	      0.00000000	    -11.22158600	     11.71149565	     13.05907365	     16.22740473	     89.95437384	      0.00000000	      0.00000000
      1.47000000	     -0.08739248	      2.31676479	     -0.62215304	      0.15835064	      0.95067183	     -1.03133658	     -4.92828035	     -2.36940063	    -16.33745560	    -16.61042619	     -0.28990663	     12.41217191	      0.92886412	    -10.99399430	     24.23430257	      4.29608759	     16.49517259	    -12.55688062	     -0.21915891	     -3.52251351	     -0.51319502	      9.47072841	     -7.14680029	     -4.58201955	      3.74224737	     13.74589934	    -12.75578915	     -4.93101080	     27.75531281	     89.95437384	      0.00000000	      0.00000000	    -11.85089780	     11.82081329	     12.96440036	     15.67219027	     89.95437384	      0.00000000	      0.00000000
      1.48000000	      0.15109849	      2.62843260	     -1.22729716	      0.16795550	      0.94966791	     -1.03169256	     -5.65040886	     -2.92668365	    -16.08042919	    -16.90702752	     -0.29508330	     12.89426746	      1.19655320	    -11.45545843	     23.80017572	      4.01567434	     16.55556795	    -11.21487414	     -0.19573648	     -3.77038305	     -1.56514999	      9.43120410	     -7.37330797	     -5.02803800	      4.31881769	     14.00750429	    -12.75313284	     -4.93540061	     28.34359510	     89.95437384	      0.00000000	      0.00000000	    -12.23220228	     11.96894770	     12.49788282	     14.95486687	     89.95437384	      0.00000000	      0.00000000
      1.49000000	      0.06683656	      2.59442858	     -1.51290627	      0.17743355	      0.94798242	     -1.03212855	     -6.04917321	     -3.02935376	    -16.04690243	    -17.19407583	     -0.30009324	     12.80188002	      1.15868832	    -11.35148681	     24.31502942	      4.14221064	     16.39661599	    -11.19545012	     -0.19539747	     -3.70350790	     -1.57983989	      9.30521473	     -7.26642347	     -5.11812322	      4.41771431	     14.35772593	    -12.59460616	     -4.94382643	     28.82106043	     89.95437384	      0.00000000	      0.00000000	    -12.94913455	     12.08235362	     12.42818903	     14.71787063	     89.95437384	      0.00000000	      0.00000000
      1.50000000	      0.60498740	      3.00051027	     -1.98788397	      0.18815197	      0.94758428	     -1.03290082	     -7.33094047	     -3.80894990	    -16.45341049	    -17.19772445	     -0.30015692	     13.25176270	      2.58491920	    -12.44247307	     23.32405967	      3.68219273	     16.79553480	     -9.84970810	     -0.17190984	     -3.74198682	     -2.45039485	      9.23568339	     -7.70471963	     -5.66598246	      4.95788335	     14.39882716	    -12.53820489	     -5.26314466	     29.34932013	     89.95437384	      0.00000000	      0.00000000	    -13.30047076	     12.33470362	     11.30384338	     14.08664466	     89.95437384	      0.00000000	      0.00000000
      1.51000000	      0.47572453	      2.96036363	     -2.27716235	      0.19798867	      0.94598077	     -1.03370309	     -7.70207983	     -3.96642762	    -16.41857381	    -17.46689485	     -0.30485483	     13.17704502	      2.51580839	    -12.33410373	     23.72190852	      3.80162597	     16.58459277	     -9.94578104	     -0.17358663	     -3.68533664	     -2.41729583	      9.10776256	     -7.50451757	     -5.71998383	      5.11528109	     14.60608468	    -12.41239860	     -5.26585472	     29.75577025	     89.95437384	      0.00000000	      0.00000000	    -13.94562368	     12.40121601	     11.23340651	     13.86924887	     89.95437384	      0.00000000	      0.00000000
      1.52000000	      0.36256788	      2.96042106	     -2.63519940	      0.20806395	      0.94453191	     -1.03450871	     -8.15525769	     -4.17146848	    -16.34804676	    -17.57533628	     -0.30674749	     13.35567040	      2.56573042	    -12.35997440	     23.86385389	      3.86545601	     16.45241239	     -9.81081687	     -0.17123106	     -3.52415940	     -2.46544509	      8.99936650	     -7.27053965	     -5.81346714	      5.43911741	     14.69997453	    -12.32321911	     -5.29147941	     30.08743986	     89.95437384	      0.00000000	      0.00000000	    -14.37788533	     12.47756544	     11.11217297	     13.39278557	     89.95437384	      0.00000000	      0.00000000
      1.53000000	      0.36232699	      3.12564915	     -3.06618079	      0.21856155	      0.94332731	     -1.03573904	     -8.70824449	     -4.62937980	    -16.04522300	    -17.77334925	     -0.31020346	     13.56396789	      2.80326223	    -12.45865971	     23.77157368	      3.72988227	     16.33244357	     -9.74628255	     -0.17010472	     -3.26279183	     -2.53144043	      8.86156876	     -7.10425663	     -6.05618844	      5.87155802	     14.59583943	    -12.30443760	     -5.36113615	     30.57937295	     89.95437384	      0.00000000	      0.00000000	    -14.65750707	     12.50854770	     10.87385512	     12.73347008	     89.95437384	      0.00000000	      0.00000000
      1.54000000	      0.53566026	      3.53393653	     -3.58345733	      0.22909981	      0.94251665	     -1.03722673	     -9.27407848	     -5.49934303	    -15.72164333	    -18.29130741	     -0.31924354	     13.57194053	      3.47619494	    -12.70469166	     23.45119463	      3.34468566	     16.43029578	     -9.87291343	     -0.17231485	     -3.14934982	     -2.41077178	      8.65868839	     -7.14790022	     -6.55892222	      6.38489368	     14.32428407	    -12.29416329	     -5.55744337	     31.40515958	     89.95437384	      0.00000000	      0.00000000	    -14.87591116	     12.59431107	     10.39489319	     12.15966875	     89.95437384	      0.00000000	      0.00000000
      1.55000000	      0.38718503	      3.56371161	     -3.86333387	      0.23973602	      0.94118034	     -1.03884861	     -9.53874579	     -5.85237100	    -15.59941406	    -18.74855314	     -0.32722398	     13.31600464	      3.45439107	    -12.54961904	     23.57872501	      3.33066334	     16.09616489	    -10.29886159	     -0.17974904	     -3.16555742	     -2.33470899	      8.49465793	     -6.82290461	     -6.63592293	      6.56159901	     14.20317448	    -12.20271330	     -5.56018602	     31.78996616	     89.95437384	      0.00000000	      0.00000000	    -15.47230522	     12.60569086	     10.31116375	     12.16451581	     89.95437384	      0.00000000	      0.00000000
      1.56000000	      0.40815062	      3.91253503	     -4.24960509	      0.25092688	      0.94020307	     -1.04090356	     -9.93886013	     -6.68283478	    -15.51363647	    -19.32842213	     -0.33734461	     13.17020261	      3.79370936	    -12.65500129	     23.34533002	      2.91920169	     15.97932896	    -10.66233005	     -0.18609277	     -2.83309410	     -2.21388586	      8.25650684	     -6.58974605	     -7.02131485	      6.93931050	     13.80017308	    -12.25040267	     -5.48131160	     32.39939753	     89.95437384	      0.00000000	      0.00000000	    -15.70301033	     12.62111365	     10.05366978	     11.60882997	     89.95437384	      0.00000000	      0.00000000
      1.57000000	      0.24522838	      3.87395773	     -4.41471579	      0.26206962	      0.93897210	     -1.04311919	    -10.18062177	     -6.96110566	    -15.25257344	    -19.88478767	     -0.34705502	     12.81969468	      3.70114993	    -12.42045864	     23.36551739	      2.87831963	     15.62033722	    -11.20036576	     -0.19548326	     -2.91107692	     -2.12059558	      8.10045019	     -6.20460196	     -6.95739428	      7.00762743	     13.55231991	    -12.20075373	     -5.46094634	     32.71809805	     89.95437384	      0.00000000	      0.00000000	    -16.30299769	     12.58079189	     10.01917616	     11.73057092	     89.95437384	      0.00000000	      0.00000000
